<?xml version="1.0" encoding="UTF-8" standalone="no"?>
<svg
   xmlns:dc="http://purl.org/dc/elements/1.1/"
   xmlns:cc="http://creativecommons.org/ns#"
   xmlns:rdf="http://www.w3.org/1999/02/22-rdf-syntax-ns#"
   xmlns:svg="http://www.w3.org/2000/svg"
   xmlns="http://www.w3.org/2000/svg"
   xmlns:sodipodi="http://sodipodi.sourceforge.net/DTD/sodipodi-0.dtd"
   xmlns:inkscape="http://www.inkscape.org/namespaces/inkscape"
   version="1.0"
   width="143.85001mm"
   height="115.53mm"
   id="svg3788"
   sodipodi:docname="logo.svg"
   inkscape:version="0.92.2 (5c3e80d, 2017-08-06)">
  <metadata
     id="metadata3792">
    <rdf:RDF>
      <cc:Work
         rdf:about="">
        <dc:format>image/svg+xml</dc:format>
        <dc:type
           rdf:resource="http://purl.org/dc/dcmitype/StillImage" />
        <dc:title></dc:title>
      </cc:Work>
    </rdf:RDF>
  </metadata>
  <sodipodi:namedview
     pagecolor="#ffffff"
     bordercolor="#666666"
     borderopacity="1"
     objecttolerance="10"
     gridtolerance="10"
     guidetolerance="10"
     inkscape:pageopacity="0"
     inkscape:pageshadow="2"
     inkscape:window-width="833"
     inkscape:window-height="732"
     id="namedview3790"
     showgrid="false"
     inkscape:zoom="2.0336709"
     inkscape:cx="271.84253"
     inkscape:cy="218.32441"
     inkscape:window-x="1024"
     inkscape:window-y="228"
     inkscape:window-maximized="0"
     inkscape:current-layer="svg3788" />
  <defs
     id="defs3706">
    <clipPath
       clipPathUnits="userSpaceOnUse"
       id="clipEmfPath1">
      <path
         d="M -0.63996676,6.719651 L 543.17179,6.719651 L 543.17179,443.49696 L -0.63996676,443.49696 z"
         id="path3699" />
    </clipPath>
    <clipPath
       clipPathUnits="userSpaceOnUse"
       id="clipEmfPath2">
      <path
         d="M 23.267578,169.26953 V 304.10547 H 443.84766 V 169.26953 Z"
         id="path3702" />
    </clipPath>
    <pattern
       id="EMFhbasepattern"
       patternUnits="userSpaceOnUse"
       width="6"
       height="6"
       x="0"
       y="0" />
  </defs>
  <path
     style="fill:none;stroke:#7f7f7f;stroke-width:2.0798919px;stroke-linecap:butt;stroke-linejoin:miter;stroke-miterlimit:8;stroke-dasharray:none;stroke-opacity:1;"
     clip-path="url(#clipEmfPath1)"
     d="  M 52.797258,225.02831   C 52.797258,105.35453 150.59218,8.3195679 271.18591,8.3195679   C 391.79965,8.3195679 489.57457,105.35453 489.57457,225.02831   C 489.57457,344.7221 391.79965,441.73706 271.18591,441.73706   C 150.59218,441.73706 52.797258,344.7221 52.797258,225.02831  "
     id="path3708" />
  <g
     clip-path="url(#clipEmfPath1)"
     id="g3710" />
  <path
     style="fill:#ffd966;fill-rule:evenodd;fill-opacity:1;stroke:none;"
     clip-path="url(#clipEmfPath1)"
     d="  M -36.318114,-128.15334   M 193.89995,182.18154   L 307.1809,282.89013   L 302.16956,288.53402   L 188.87315,187.82543   z "
     id="path3712" />
  <path
     style="fill:#8faadc;fill-rule:evenodd;fill-opacity:1;stroke:none;"
     clip-path="url(#clipEmfPath1)"
     d="  M 50.659257,213.81824   L 131.02624,285.25593   L 126.35518,290.51325   L 45.988197,219.07555   z "
     id="path3714" />
  <path
     style="fill:#ffd966;fill-rule:evenodd;fill-opacity:1;stroke:none;"
     clip-path="url(#clipEmfPath1)"
     d="  M 248.40597,221.65783   C 255.8611,221.65783 261.89327,227.73467 261.89327,235.20316   C 261.89327,242.6871 255.8611,248.74848 248.40597,248.74848   C 240.9663,248.74848 234.91867,242.6871 234.91867,235.20316   C 234.91867,227.73467 240.9663,221.65783 248.40597,221.65783   z "
     id="path3716" />
  <path
     style="fill:#ffd966;fill-rule:evenodd;fill-opacity:1;stroke:none;"
     clip-path="url(#clipEmfPath1)"
     d="  M 189.25983,169.82684   C 196.71496,169.82684 202.74713,175.86503 202.74713,183.31032   C 202.74713,190.76334 196.71496,196.7938 189.25983,196.7938   C 181.81242,196.7938 175.77253,190.76334 175.77253,183.31032   C 175.77253,175.86503 181.81242,169.82684 189.25983,169.82684   z "
     id="path3718" />
  <path
     style="fill:#ffd966;fill-rule:evenodd;fill-opacity:1;stroke:none;"
     clip-path="url(#clipEmfPath1)"
     d="  M 160.24357,196.54639   C 167.72964,196.54639 173.79274,202.58458 173.79274,210.02987   C 173.79274,217.4829 167.72964,223.51335 160.24357,223.51335   C 152.76523,223.51335 146.6944,217.4829 146.6944,210.02987   C 146.6944,202.58458 152.76523,196.54639 160.24357,196.54639   z "
     id="path3720" />
  <path
     style="fill:#ffd966;fill-rule:evenodd;fill-opacity:1;stroke:none;"
     clip-path="url(#clipEmfPath1)"
     d="  M 130.8561,221.65783   C 138.31124,221.65783 144.3434,227.72694 144.3434,235.20316   C 144.3434,242.6871 138.31124,248.74848 130.8561,248.74848   C 123.4087,248.74848 117.3688,242.6871 117.3688,235.20316   C 117.3688,227.72694 123.4087,221.65783 130.8561,221.65783   z "
     id="path3722" />
  <path
     style="fill:#ffd966;fill-rule:evenodd;fill-opacity:1;stroke:none;"
     clip-path="url(#clipEmfPath1)"
     d="  M 248.40597,248.00627   C 240.9663,248.00627 234.91867,241.94489 234.91867,234.46095   C 234.91867,226.99246 240.9663,220.91562 248.40597,220.91562   C 255.8611,220.91562 261.89327,226.99246 261.89327,234.46095   C 261.89327,241.94489 255.8611,248.00627 248.40597,248.00627   z "
     id="path3724" />
  <path
     style="fill:#ffd966;fill-rule:evenodd;fill-opacity:1;stroke:none;"
     clip-path="url(#clipEmfPath1)"
     d="  M 277.79343,273.11771   C 270.32283,273.11771 264.24426,267.05633 264.24426,259.57238   C 264.24426,252.10389 270.32283,246.02705 277.79343,246.02705   C 285.2795,246.02705 291.3426,252.10389 291.3426,259.57238   C 291.3426,267.05633 285.2795,273.11771 277.79343,273.11771   z "
     id="path3726" />
  <path
     style="fill:#ffd966;fill-rule:evenodd;fill-opacity:1;stroke:none;"
     clip-path="url(#clipEmfPath1)"
     d="  M 307.61398,299.83726   C 300.14337,299.83726 294.06481,293.8068 294.06481,286.35378   C 294.06481,278.91622 300.14337,272.8703 307.61398,272.8703   C 315.10005,272.8703 321.16314,278.91622 321.16314,286.35378   C 321.16314,293.8068 315.10005,299.83726 307.61398,299.83726   z "
     id="path3728" />
  <path
     style="fill:#ffd966;fill-rule:evenodd;fill-opacity:1;stroke:none;"
     clip-path="url(#clipEmfPath2)"
     d="  M 14.11053,248.74848   C 6.6321935,248.74848 0.56136184,242.6871 0.56136184,235.20316   C 0.56136184,227.72694 6.6321935,221.65783 14.11053,221.65783   C 21.5966,221.65783 27.659699,227.72694 27.659699,235.20316   C 27.659699,242.6871 21.5966,248.74848 14.11053,248.74848   z "
     id="path3730" />
  <path
     style="fill:#ffd966;fill-rule:evenodd;fill-opacity:1;stroke:none;"
     clip-path="url(#clipEmfPath1)"
     d="  M 43.436127,273.85992   C 35.965524,273.85992 29.886959,267.82946 29.886959,260.37644   C 29.886959,252.93888 35.965524,246.89296 43.436127,246.89296   C 50.922198,246.89296 56.985296,252.93888 56.985296,260.37644   C 56.985296,267.82946 50.922198,273.85992 43.436127,273.85992   z "
     id="path3732" />
  <path
     style="fill:#ffd966;fill-rule:evenodd;fill-opacity:1;stroke:none;"
     clip-path="url(#clipEmfPath1)"
     d="  M 73.256671,300.70317   C 65.786068,300.70317 59.707503,294.64179 59.707503,287.15784   C 59.707503,279.68935 65.786068,273.61251 73.256671,273.61251   C 80.742742,273.61251 86.80584,279.68935 86.80584,287.15784   C 86.80584,294.64179 80.742742,300.70317 73.256671,300.70317   z "
     id="path3734" />
  <path
     style="fill:#ffd966;fill-rule:evenodd;fill-opacity:1;stroke:none;"
     clip-path="url(#clipEmfPath1)"
     d="  M 102.21106,273.85992   C 94.740455,273.85992 88.66189,267.82946 88.66189,260.37644   C 88.66189,252.93888 94.740455,246.89296 102.21106,246.89296   C 109.69713,246.89296 115.76023,252.93888 115.76023,260.37644   C 115.76023,267.82946 109.69713,273.85992 102.21106,273.85992   z "
     id="path3736" />
  <path
     style="fill:#ffd966;fill-rule:evenodd;fill-opacity:1;stroke:none;"
     clip-path="url(#clipEmfPath1)"
     d="  M 131.66039,248.74848   C 124.18206,248.74848 118.11122,242.6871 118.11122,235.20316   C 118.11122,227.72694 124.18206,221.65783 131.66039,221.65783   C 139.14646,221.65783 145.20956,227.72694 145.20956,235.20316   C 145.20956,242.6871 139.14646,248.74848 131.66039,248.74848   z "
     id="path3738" />
  <path
     style="fill:#8faadc;fill-rule:evenodd;fill-opacity:1;stroke:none;"
     clip-path="url(#clipEmfPath1)"
     d="  M 337.55826,273.85992   C 330.08765,273.85992 324.00909,267.82946 324.00909,260.37644   C 324.00909,252.93888 330.08765,246.89296 337.55826,246.89296   C 345.04433,246.89296 351.10742,252.93888 351.10742,260.37644   C 351.10742,267.82946 345.04433,273.85992 337.55826,273.85992   z "
     id="path3740" />
  <path
     style="fill:#8faadc;fill-rule:evenodd;fill-opacity:1;stroke:none;"
     clip-path="url(#clipEmfPath1)"
     d="  M 308.72761,250.72771   C 301.257,250.72771 295.17844,244.69726 295.17844,237.24423   C 295.17844,229.80667 301.257,223.76075 308.72761,223.76075   C 316.21368,223.76075 322.27677,229.80667 322.27677,237.24423   C 322.27677,244.69726 316.21368,250.72771 308.72761,250.72771   z "
     id="path3742" />
  <path
     style="fill:#8faadc;fill-rule:evenodd;fill-opacity:1;stroke:none;"
     clip-path="url(#clipEmfPath1)"
     d="  M 367.93562,299.83726   C 360.49595,299.83726 354.44832,293.77588 354.44832,286.29193   C 354.44832,278.82344 360.49595,272.7466 367.93562,272.7466   C 375.39075,272.7466 381.42292,278.82344 381.42292,286.29193   C 381.42292,293.77588 375.39075,299.83726 367.93562,299.83726   z "
     id="path3744" />
  <path
     style="fill:#8faadc;fill-rule:evenodd;fill-opacity:1;stroke:none;"
     clip-path="url(#clipEmfPath1)"
     d="  M 399.85968,299.83726   C 392.42001,299.83726 386.37238,293.77588 386.37238,286.29193   C 386.37238,278.82344 392.42001,272.7466 399.85968,272.7466   C 407.31482,272.7466 413.34698,278.82344 413.34698,286.29193   C 413.34698,293.77588 407.31482,299.83726 399.85968,299.83726   z "
     id="path3746" />
  <path
     style="fill:#8faadc;fill-rule:evenodd;fill-opacity:1;stroke:none;"
     clip-path="url(#clipEmfPath2)"
     d="  M 431.66001,299.71356   C 424.22035,299.71356 418.17271,293.6831 418.17271,286.23008   C 418.17271,278.79252 424.22035,272.7466 431.66001,272.7466   C 439.11515,272.7466 445.14731,278.79252 445.14731,286.23008   C 445.14731,293.6831 439.11515,299.71356 431.66001,299.71356   z "
     id="path3748" />
  <path
     style="fill:#8faadc;fill-rule:evenodd;fill-opacity:1;stroke:none;"
     clip-path="url(#clipEmfPath1)"
     d="  M 73.627882,251.59362   C 66.149545,251.59362 60.078713,245.53224 60.078713,238.04829   C 60.078713,230.57208 66.149545,224.50296 73.627882,224.50296   C 81.113952,224.50296 87.17705,230.57208 87.17705,238.04829   C 87.17705,245.53224 81.113952,251.59362 73.627882,251.59362   z "
     id="path3750" />
  <path
     style="fill:#8faadc;fill-rule:evenodd;fill-opacity:1;stroke:none;"
     clip-path="url(#clipEmfPath1)"
     d="  M 132.77402,303.42461   C 125.30342,303.42461 119.22485,297.36323 119.22485,289.87928   C 119.22485,282.41079 125.30342,276.33395 132.77402,276.33395   C 140.26009,276.33395 146.32319,282.41079 146.32319,289.87928   C 146.32319,297.36323 140.26009,303.42461 132.77402,303.42461   z "
     id="path3752" />
  <path
     style="fill:#8faadc;fill-rule:evenodd;fill-opacity:1;stroke:none;"
     clip-path="url(#clipEmfPath1)"
     d="  M 161.79028,276.70505   C 154.35061,276.70505 148.30298,270.64367 148.30298,263.15972   C 148.30298,255.69124 154.35061,249.6144 161.79028,249.6144   C 169.24541,249.6144 175.27758,255.69124 175.27758,263.15972   C 175.27758,270.64367 169.24541,276.70505 161.79028,276.70505   z "
     id="path3754" />
  <path
     style="fill:#8faadc;fill-rule:evenodd;fill-opacity:1;stroke:none;"
     clip-path="url(#clipEmfPath1)"
     d="  M 191.17774,251.59362   C 183.69941,251.59362 177.62858,245.53224 177.62858,238.04829   C 177.62858,230.57208 183.69941,224.50296 191.17774,224.50296   C 198.66381,224.50296 204.72691,230.57208 204.72691,238.04829   C 204.72691,245.53224 198.66381,251.59362 191.17774,251.59362   z "
     id="path3756" />
  <path
     style="fill:#8faadc;fill-rule:evenodd;fill-opacity:1;stroke:none;"
     clip-path="url(#clipEmfPath1)"
     d="  M 308.3564,224.50296   C 315.84247,224.50296 321.90556,230.57981 321.90556,238.04829   C 321.90556,245.53224 315.84247,251.59362 308.3564,251.59362   C 300.88579,251.59362 294.80723,245.53224 294.80723,238.04829   C 294.80723,230.57981 300.88579,224.50296 308.3564,224.50296   z "
     id="path3758" />
  <path
     style="fill:#8faadc;fill-rule:evenodd;fill-opacity:1;stroke:none;"
     clip-path="url(#clipEmfPath1)"
     d="  M 278.90706,199.26783   C 286.39313,199.26783 292.45623,205.34467 292.45623,212.81316   C 292.45623,220.29711 286.39313,226.35849 278.90706,226.35849   C 271.43646,226.35849 265.35789,220.29711 265.35789,212.81316   C 265.35789,205.34467 271.43646,199.26783 278.90706,199.26783   z "
     id="path3760" />
  <path
     style="fill:#8faadc;fill-rule:evenodd;fill-opacity:1;stroke:none;"
     clip-path="url(#clipEmfPath1)"
     d="  M 249.21025,172.54828   C 256.69633,172.54828 262.75942,178.62512 262.75942,186.09361   C 262.75942,193.57756 256.69633,199.63894 249.21025,199.63894   C 241.73965,199.63894 235.66109,193.57756 235.66109,186.09361   C 235.66109,178.62512 241.73965,172.54828 249.21025,172.54828   z "
     id="path3762" />
  <path
     style="fill:#8faadc;fill-rule:evenodd;fill-opacity:1;stroke:none;"
     clip-path="url(#clipEmfPath1)"
     d="  M 220.13213,199.26783   C 227.6182,199.26783 233.6813,205.33694 233.6813,212.81316   C 233.6813,220.29711 227.6182,226.35849 220.13213,226.35849   C 212.65379,226.35849 206.58296,220.29711 206.58296,212.81316   C 206.58296,205.33694 212.65379,199.26783 220.13213,199.26783   z "
     id="path3764" />
  <path
     style="fill:#8faadc;fill-rule:evenodd;fill-opacity:1;stroke:none;"
     clip-path="url(#clipEmfPath1)"
     d="  M 190.80653,224.50296   C 198.2926,224.50296 204.3557,230.57208 204.3557,238.04829   C 204.3557,245.53224 198.2926,251.59362 190.80653,251.59362   C 183.3282,251.59362 177.25737,245.53224 177.25737,238.04829   C 177.25737,230.57208 183.3282,224.50296 190.80653,224.50296   z "
     id="path3766" />
  <path
     style="fill:#8faadc;fill-rule:evenodd;fill-opacity:1;stroke:none;"
     clip-path="url(#clipEmfPath1)"
     d="  M 43.436127,227.2244   C 35.957791,227.2244 29.886959,221.16302 29.886959,213.67907   C 29.886959,206.20285 35.957791,200.13374 43.436127,200.13374   C 50.922198,200.13374 56.985296,206.20285 56.985296,213.67907   C 56.985296,221.16302 50.922198,227.2244 43.436127,227.2244   z "
     id="path3768" />
  <path
     style="fill:#ff7c80;fill-rule:evenodd;fill-opacity:1;stroke:none;"
     clip-path="url(#clipEmfPath1)"
     d="  M 367.50254,250.2329   C 360.03193,250.2329 353.95337,244.17152 353.95337,236.68757   C 353.95337,229.21909 360.03193,223.14225 367.50254,223.14225   C 374.98861,223.14225 381.05171,229.21909 381.05171,236.68757   C 381.05171,244.17152 374.98861,250.2329 367.50254,250.2329   z "
     id="path3770" />
  <path
     style="fill:#ff7c80;fill-rule:evenodd;fill-opacity:1;stroke:none;"
     clip-path="url(#clipEmfPath1)"
     d="  M 399.17913,250.2329   C 391.70853,250.2329 385.62996,244.17152 385.62996,236.68757   C 385.62996,229.21909 391.70853,223.14225 399.17913,223.14225   C 406.6652,223.14225 412.7283,229.21909 412.7283,236.68757   C 412.7283,244.17152 406.6652,250.2329 399.17913,250.2329   z "
     id="path3772" />
  <path
     style="fill:#ff7c80;fill-rule:evenodd;fill-opacity:1;stroke:none;"
     clip-path="url(#clipEmfPath2)"
     d="  M 430.67012,250.2329   C 423.23045,250.2329 417.18282,244.17152 417.18282,236.68757   C 417.18282,229.21909 423.23045,223.14225 430.67012,223.14225   C 438.12526,223.14225 444.15742,229.21909 444.15742,236.68757   C 444.15742,244.17152 438.12526,250.2329 430.67012,250.2329   z "
     id="path3774" />
  <path
     style="fill:#8faadc;fill-rule:evenodd;fill-opacity:1;stroke:none;"
     clip-path="url(#clipEmfPath1)"
     d="  M 130.82517,285.03945   L 239.63613,190.08298   L 244.12158,195.2166   L 135.29516,290.17307   z "
     id="path3776" />
  <path
     style="fill:#8faadc;fill-rule:evenodd;fill-opacity:1;stroke:none;"
     clip-path="url(#clipEmfPath1)"
     d="  M 251.53032,182.7382   L 362.13546,279.24094   L 357.99028,283.98799   L 247.38514,187.48525   z "
     id="path3778" />
  <path
     style="fill:#ffd966;fill-rule:evenodd;fill-opacity:1;stroke:none;"
     clip-path="url(#clipEmfPath2)"
     d="  M 9.4858711,226.37395   L 78.314409,287.55987   L 73.844421,292.58525   L 5.03135,231.39933   z "
     id="path3780" />
  <path
     style="fill:#ffd966;fill-rule:evenodd;fill-opacity:1;stroke:none;"
     clip-path="url(#clipEmfPath1)"
     d="  M 75.128189,280.64804   L 183.95461,185.70704   L 188.4246,190.84066   L 79.613644,285.78166   z "
     id="path3782" />
  <path
     style="fill:#8faadc;fill-rule:evenodd;fill-opacity:1;stroke:none;"
     clip-path="url(#clipEmfPath1)"
     d="  M 364.96594,284.00345   L 364.96594,291.05444   L 440.69279,291.05444   L 440.69279,284.00345   L 364.96594,284.00345   z "
     id="path3784" />
  <path
     style="fill:#ff7c80;fill-rule:evenodd;fill-opacity:1;stroke:none;"
     clip-path="url(#clipEmfPath2)"
     d="  M 368.18309,233.03838   L 368.18309,240.08937   L 524.09133,240.08937   L 524.09133,233.03838   L 368.18309,233.03838   z "
     id="path3786" />
</svg>
